<svg xmlns="http://www.w3.org/2000/svg" viewBox="0 0 533.5 544.3">
    <path
            fill="#4285f4"
            d="M533.5 278.4c0-17.4-1.4-34.2-4.1-50.4H272v95.3h146.9c-6.3 34.1-25.1 62.9-53.6 82.2v68h86.7c50.8-46.8 81.5-115.7 81.5-195.1z"
    />
    <path
            fill="#34a853"
            d="M272 544.3c72.6 0 133.6-24 178.1-64.9l-86.7-68c-24.1 16.2-54.8 25.6-91.4 25.6-70 0-129.4-47.2-150.7-110.4H31.7v69.3C76.7 486.2 168.9 544.3 272 544.3z"
    />
    <path
            fill="#fbbc04"
            d="M121.3 326.6c-5.9-17.5-9.3-36.2-9.3-55.3s3.4-37.8 9.3-55.3V146.7H31.7C11.4 185.1 0 228.5 0 271.3s11.4 86.2 31.7 124.6l89.6-69.3z"
    />
    <path
            fill="#ea4335"
            d="M272 107.7c39.6 0 75.1 13.7 103.2 40.6l77.4-77.4C405.6 25.1 344.6 0 272 0 168.9 0 76.7 58.1 31.7 146.7l89.6 69.3c21.3-63.2 80.7-110.4 150.7-110.4z"
    />
</svg>
